<svg xmlns="http://www.w3.org/2000/svg" viewBox="0 0 64 64" role="img" aria-label="Animal Health AI">
  <rect width="64" height="64" rx="14" fill="#2563eb"/>
  <path d="M16 24v-5a3 3 0 0 1 3-3h5" fill="none" stroke="#dbeafe" stroke-width="4" stroke-linecap="round"/>
  <path d="M40 16h5a3 3 0 0 1 3 3v5" fill="none" stroke="#dbeafe" stroke-width="4" stroke-linecap="round"/>
  <path d="M48 40v5a3 3 0 0 1-3 3h-5" fill="none" stroke="#dbeafe" stroke-width="4" stroke-linecap="round"/>
  <path d="M24 48h-5a3 3 0 0 1-3-3v-5" fill="none" stroke="#dbeafe" stroke-width="4" stroke-linecap="round"/>
  <circle cx="23" cy="35" r="3.6" fill="#ffffff"/>
  <circle cx="32" cy="28" r="3.6" fill="#ffffff"/>
  <circle cx="42" cy="35" r="3.6" fill="#ffffff"/>
  <path d="M23 35l9-7 10 7" fill="none" stroke="#ffffff" stroke-width="3.5" stroke-linecap="round" stroke-linejoin="round"/>
  <path d="M32 28v13" fill="none" stroke="#ffffff" stroke-width="3.5" stroke-linecap="round"/>
</svg>
